<svg xmlns="http://www.w3.org/2000/svg" width="600" height="400" viewBox="0 0 600 400"><rect width="100%" height="100%" fill="#DDDDDD"/><path fill="#999999" d="M124.37 207.23q-1.67 0-2.57-.94-.89-.95-.89-2.61v-7.16h-1.31q-.25 0-.43-.17-.17-.16-.17-.48v-1.23l2.06-.34.65-3.5q.06-.25.24-.38.17-.14.45-.14h1.6v4.04h3.42v2.2H124v6.95q0 .6.29.93.3.34.81.34.29 0 .48-.07t.34-.14q.14-.08.25-.14.12-.07.23-.07.14 0 .22.07.09.06.19.2l.93 1.5q-.68.56-1.55.85-.88.29-1.82.29Zm8.12-18.77v7.12q.75-.7 1.65-1.14.9-.44 2.11-.44 1.05 0 1.86.36t1.36 1q.54.64.82 1.54.28.89.28 1.97v8.16h-3.08v-8.16q0-1.18-.54-1.82-.54-.65-1.64-.65-.8 0-1.5.37-.7.36-1.32.98v9.28h-3.09v-18.57h3.09Zm11.11 5.74h3.1v12.83h-3.1V194.2Zm3.52-3.73q0 .4-.16.75t-.43.61q-.27.26-.63.42-.36.15-.78.15-.4 0-.75-.15-.36-.16-.62-.42t-.42-.61q-.16-.35-.16-.75 0-.42.16-.78.16-.36.42-.62.26-.27.62-.42.35-.16.75-.16.42 0 .78.16.36.15.63.42.27.26.43.62.16.36.16.78Zm11.25 5.12-.7 1.11q-.12.2-.26.29-.14.08-.35.08-.22 0-.48-.13-.26-.12-.59-.28-.34-.16-.77-.28-.43-.13-1.02-.13-.91 0-1.43.39-.52.39-.52 1.01 0 .42.27.7.27.28.71.49.44.21 1.01.38.56.17 1.14.37.58.2 1.14.46.57.25 1.01.65.44.39.71.94.27.55.27 1.33 0 .92-.33 1.7-.33.78-.98 1.35-.65.57-1.61.89-.95.32-2.2.32-.67 0-1.3-.12t-1.21-.33q-.58-.21-1.08-.5-.49-.29-.86-.63l.71-1.17q.14-.21.32-.33.19-.11.48-.11t.54.16q.26.17.6.35.33.19.79.35.46.17 1.16.17.55 0 .94-.13.39-.14.65-.35.26-.21.37-.49.12-.28.12-.58 0-.45-.27-.74-.26-.29-.71-.5-.44-.21-1.01-.38-.57-.17-1.16-.37-.6-.2-1.17-.47-.56-.27-1.01-.68-.44-.41-.71-1.01-.27-.6-.27-1.45 0-.79.31-1.5.32-.72.92-1.25.61-.53 1.51-.85.91-.32 2.1-.32 1.32 0 2.41.44t1.81 1.15Zm8.64-1.39h3.1v12.83h-3.1V194.2Zm3.53-3.73q0 .4-.17.75-.16.35-.43.61t-.63.42q-.36.15-.77.15-.4 0-.76-.15-.36-.16-.62-.42t-.42-.61q-.15-.35-.15-.75 0-.42.15-.78.16-.36.42-.62.26-.27.62-.42.36-.16.76-.16.41 0 .77.16.36.15.63.42.27.26.43.62.17.36.17.78Zm11.25 5.12-.7 1.11q-.13.2-.27.29-.13.08-.35.08-.22 0-.48-.13-.25-.12-.59-.28-.34-.16-.77-.28-.43-.13-1.02-.13-.91 0-1.43.39-.52.39-.52 1.01 0 .42.27.7.27.28.71.49.45.21 1.01.38t1.14.37q.58.2 1.15.46.56.25 1 .65.45.39.71.94.27.55.27 1.33 0 .92-.33 1.7-.33.78-.98 1.35-.65.57-1.61.89-.95.32-2.2.32-.66 0-1.3-.12-.63-.12-1.21-.33-.58-.21-1.07-.5-.5-.29-.87-.63l.71-1.17q.14-.21.33-.33.18-.11.47-.11t.54.16q.26.17.6.35.34.19.79.35.46.17 1.16.17.55 0 .94-.13.4-.14.65-.35.26-.21.38-.49t.12-.58q0-.45-.27-.74t-.72-.5q-.44-.21-1.01-.38-.57-.17-1.16-.37-.59-.2-1.16-.47-.57-.27-1.02-.68-.44-.41-.71-1.01-.27-.6-.27-1.45 0-.79.32-1.5.31-.72.91-1.25.61-.53 1.52-.85.9-.32 2.09-.32 1.33 0 2.41.44 1.09.44 1.82 1.15Zm15.31 8.13v-2.17q-1.34.07-2.25.24-.91.16-1.46.43-.55.26-.79.61t-.24.76q0 .81.48 1.17.48.34 1.26.34.95 0 1.64-.34.7-.34 1.36-1.04Zm-6.53-6.74-.55-.99q2.22-2.02 5.33-2.02 1.12 0 2.01.37.89.36 1.5 1.02t.93 1.57q.32.91.32 2v8.1h-1.4q-.44 0-.67-.13-.24-.13-.38-.53l-.27-.93q-.49.44-.95.77-.47.33-.97.56-.5.22-1.07.34-.56.12-1.25.12-.81 0-1.5-.22t-1.19-.66q-.5-.43-.77-1.08-.28-.65-.28-1.52 0-.48.16-.96.17-.49.53-.92.37-.44.96-.83.59-.39 1.44-.67.86-.29 2-.47 1.14-.18 2.6-.22v-.75q0-1.29-.55-1.91-.55-.62-1.59-.62-.75 0-1.24.18-.5.17-.87.39-.38.22-.68.4-.31.17-.68.17-.33 0-.55-.17-.23-.17-.37-.39Zm21.6.97v5.75q.53.64 1.15.9.62.27 1.34.27.7 0 1.26-.27.57-.26.96-.8.39-.53.61-1.35.21-.82.21-1.93 0-1.13-.18-1.91t-.52-1.27q-.34-.49-.82-.71-.48-.23-1.09-.23-.97 0-1.64.41-.68.41-1.28 1.14Zm-.41-3.18.25 1.18q.79-.88 1.79-1.43 1-.55 2.35-.55 1.05 0 1.92.43.87.44 1.5 1.27.63.83.97 2.05.35 1.22.35 2.8 0 1.43-.39 2.66-.39 1.22-1.11 2.12-.72.9-1.74 1.41-1.01.51-2.28.51-1.07 0-1.83-.33-.77-.34-1.37-.92v5.25h-3.08V194.2h1.88q.6 0 .79.57Zm11.56-6.31h3.09v18.57h-3.09v-18.57Zm12.95 15.26v-2.17q-1.33.07-2.25.24-.91.16-1.46.43-.55.26-.79.61-.23.35-.23.76 0 .81.48 1.17.48.34 1.25.34.95 0 1.65-.34.69-.34 1.35-1.04Zm-6.52-6.74-.55-.99q2.21-2.02 5.32-2.02 1.13 0 2.02.37.88.36 1.5 1.02.61.66.93 1.57.32.91.32 2v8.1h-1.4q-.44 0-.68-.13-.24-.13-.37-.53l-.28-.93q-.49.44-.95.77-.46.33-.96.56-.5.22-1.07.34-.57.12-1.26.12-.81 0-1.5-.22-.68-.22-1.18-.66-.5-.43-.78-1.08-.27-.65-.27-1.52 0-.48.16-.96.16-.49.53-.92.37-.44.96-.83.58-.39 1.44-.67.86-.29 1.99-.47 1.14-.18 2.6-.22v-.75q0-1.29-.55-1.91-.55-.62-1.58-.62-.75 0-1.25.18-.49.17-.87.39-.37.22-.68.4-.3.17-.68.17-.32 0-.55-.17-.22-.17-.36-.39Zm22.44-1.19-.82 1.13q-.13.17-.27.27-.13.1-.38.1-.23 0-.46-.14-.22-.15-.54-.33-.31-.18-.74-.32-.43-.15-1.07-.15-.81 0-1.42.3-.62.29-1.02.84-.41.55-.61 1.33t-.2 1.77q0 1.03.22 1.83t.63 1.34q.41.54 1 .83.59.28 1.33.28.73 0 1.19-.18.46-.19.77-.4.31-.22.54-.4.23-.19.52-.19.38 0 .56.29l.89 1.13q-.51.6-1.11 1-.6.41-1.25.65-.64.25-1.32.35-.68.1-1.36.1-1.18 0-2.23-.45-1.05-.44-1.84-1.29-.79-.85-1.25-2.08-.45-1.23-.45-2.81 0-1.41.4-2.62.41-1.2 1.2-2.08.79-.89 1.95-1.39 1.16-.5 2.67-.5 1.44 0 2.52.47 1.08.46 1.95 1.32Zm4.48 3.35h5.83q0-.6-.17-1.13-.17-.53-.51-.93-.33-.4-.85-.63-.52-.23-1.21-.23-1.34 0-2.11.76-.76.76-.98 2.16Zm7.88 1.86h-7.94q.08.99.35 1.71.28.72.73 1.19.45.47 1.06.7.62.23 1.37.23.75 0 1.3-.18.54-.17.95-.38l.71-.39q.31-.18.59-.18.39 0 .58.29l.89 1.13q-.52.6-1.15 1-.64.41-1.34.65-.69.25-1.41.35-.72.1-1.39.1-1.34 0-2.49-.45-1.15-.44-2-1.31-.85-.87-1.34-2.15-.48-1.28-.48-2.97 0-1.31.42-2.47.43-1.15 1.22-2.01.79-.86 1.94-1.36 1.14-.5 2.58-.5 1.21 0 2.24.39 1.02.39 1.76 1.13.74.75 1.15 1.83.42 1.08.42 2.47 0 .7-.15.94t-.57.24Zm6.12-12.54v7.12q.75-.7 1.65-1.14.9-.44 2.12-.44 1.05 0 1.86.36t1.35 1q.55.64.83 1.54.28.89.28 1.97v8.16h-3.09v-8.16q0-1.18-.53-1.82-.54-.65-1.64-.65-.8 0-1.5.37-.7.36-1.33.98v9.28h-3.08v-18.57h3.08Zm16.69 5.54q1.43 0 2.59.47 1.17.46 2 1.31.84.85 1.29 2.07.45 1.23.45 2.74 0 1.53-.45 2.75-.45 1.23-1.29 2.09-.83.86-2 1.32-1.16.47-2.59.47-1.44 0-2.61-.47-1.18-.46-2.01-1.32-.83-.86-1.29-2.09-.45-1.22-.45-2.75 0-1.51.45-2.74.46-1.22 1.29-2.07.83-.85 2.01-1.31 1.17-.47 2.61-.47Zm0 10.84q1.6 0 2.37-1.07.77-1.08.77-3.15 0-2.08-.77-3.17-.77-1.08-2.37-1.08-1.62 0-2.41 1.09-.78 1.1-.78 3.16t.78 3.14q.79 1.08 2.41 1.08Zm8.73-16.38h3.08v18.57h-3.08v-18.57Zm14.22 14.77v-5.75q-.52-.64-1.14-.9-.62-.26-1.33-.26-.7 0-1.27.26-.56.26-.96.79-.4.53-.61 1.35-.21.82-.21 1.93 0 1.13.18 1.91t.52 1.28q.33.49.82.71.49.22 1.09.22.96 0 1.64-.4.67-.4 1.27-1.14Zm0-14.77h3.09v18.57h-1.89q-.61 0-.77-.56l-.27-1.24q-.77.89-1.78 1.44-1 .55-2.34.55-1.05 0-1.93-.44-.87-.44-1.5-1.27-.63-.83-.98-2.06-.34-1.22-.34-2.8 0-1.42.39-2.65.38-1.22 1.11-2.12.72-.9 1.74-1.41 1.01-.5 2.27-.5 1.08 0 1.84.33.76.34 1.36.92v-6.76Zm8.58 10.68h5.82q0-.6-.17-1.13-.17-.53-.5-.93-.34-.4-.86-.63-.52-.23-1.21-.23-1.33 0-2.1.76t-.98 2.16Zm7.87 1.86h-7.94q.08.99.35 1.71.28.72.73 1.19.45.47 1.07.7.62.23 1.37.23.75 0 1.29-.18.54-.17.95-.38.41-.22.71-.39.31-.18.6-.18.38 0 .57.29l.89 1.13q-.51.6-1.15 1-.64.41-1.33.65-.7.25-1.42.35-.71.1-1.39.1-1.34 0-2.49-.45-1.15-.44-2-1.31-.85-.87-1.33-2.15-.49-1.28-.49-2.97 0-1.31.42-2.47.43-1.15 1.22-2.01.8-.86 1.94-1.36 1.14-.5 2.58-.5 1.21 0 2.24.39 1.02.39 1.76 1.13.74.75 1.16 1.83.42 1.08.42 2.47 0 .7-.15.94t-.58.24Zm5.76-6.02.19 1.45q.6-1.15 1.43-1.81.82-.65 1.95-.65.88 0 1.42.38l-.2 2.32q-.06.22-.18.32-.12.09-.32.09-.19 0-.56-.06-.36-.07-.71-.07-.52 0-.92.15t-.72.44q-.31.28-.56.68-.24.4-.45.91v7.9h-3.09V194.2h1.81q.48 0 .66.17.19.17.25.61Zm16.67 12.05h-3.09v-10.5l-1.11-.18q-.37-.07-.58-.25-.22-.18-.22-.52v-1.26h1.91v-.95q0-1.1.33-1.98.33-.87.95-1.49.62-.61 1.51-.93.88-.33 2-.33.88 0 1.65.24l-.07 1.55q-.01.17-.1.28-.08.11-.23.16-.14.06-.33.08-.19.02-.4.02-.55 0-.98.12-.43.11-.73.41-.3.29-.46.77-.15.48-.15 1.2v.85h3.33v2.2h-3.23v10.51ZM359.84 194q1.42 0 2.59.47 1.17.46 2 1.31.83.85 1.28 2.07.45 1.23.45 2.74 0 1.53-.45 2.75-.45 1.23-1.28 2.09-.83.86-2 1.32-1.17.47-2.59.47-1.44 0-2.62-.47-1.17-.46-2-1.32-.83-.86-1.29-2.09-.46-1.22-.46-2.75 0-1.51.46-2.74.46-1.22 1.29-2.07.83-.85 2-1.31 1.18-.47 2.62-.47Zm0 10.84q1.6 0 2.36-1.07.77-1.08.77-3.15 0-2.08-.77-3.17-.76-1.08-2.36-1.08-1.63 0-2.41 1.09-.78 1.1-.78 3.16t.78 3.14q.78 1.08 2.41 1.08Zm11.41-9.86.19 1.45q.6-1.15 1.42-1.81.83-.65 1.95-.65.89 0 1.43.38l-.2 2.32q-.07.22-.19.32-.11.09-.31.09-.19 0-.56-.06-.37-.07-.72-.07-.51 0-.91.15t-.72.44q-.32.28-.56.68-.25.4-.46.91v7.9h-3.09V194.2h1.82q.47 0 .66.17.19.17.25.61Zm19.45 8.74v-2.17q-1.34.07-2.25.24-.91.16-1.46.43-.55.26-.79.61t-.24.76q0 .81.48 1.17.48.34 1.26.34.95 0 1.64-.34.7-.34 1.36-1.04Zm-6.53-6.74-.55-.99q2.22-2.02 5.33-2.02 1.12 0 2.01.37.89.36 1.5 1.02t.93 1.57q.32.91.32 2v8.1h-1.4q-.44 0-.67-.13-.24-.13-.38-.53l-.27-.93q-.49.44-.95.77-.47.33-.97.56-.5.22-1.06.34-.57.12-1.26.12-.81 0-1.5-.22t-1.19-.66q-.5-.43-.77-1.08-.28-.65-.28-1.52 0-.48.16-.96.17-.49.54-.92.36-.44.95-.83.59-.39 1.44-.67.86-.29 2-.47 1.14-.18 2.6-.22v-.75q0-1.29-.55-1.91-.55-.62-1.59-.62-.75 0-1.24.18-.5.17-.87.39-.38.22-.68.4-.31.17-.68.17-.33 0-.55-.17-.23-.17-.37-.39Zm15.12-2.21.21 1.01q.39-.39.82-.72.43-.33.91-.56.48-.23 1.03-.36.55-.14 1.2-.14 1.05 0 1.86.36.82.36 1.36 1 .54.64.83 1.54.28.89.28 1.97v8.16h-3.09v-8.16q0-1.18-.54-1.82-.54-.65-1.64-.65-.8 0-1.5.37-.7.36-1.32.98v9.28h-3.09V194.2h1.89q.6 0 .79.57Zm17.6-.57h3.1v12.83h-3.1V194.2Zm3.52-3.73q0 .4-.16.75t-.43.61q-.27.26-.63.42-.37.15-.78.15-.4 0-.76-.15-.35-.16-.61-.42-.27-.26-.42-.61-.16-.35-.16-.75 0-.42.16-.78.15-.36.42-.62.26-.27.61-.42.36-.16.76-.16.41 0 .78.16.36.15.63.42.27.26.43.62.16.36.16.78Zm5.81 16.56h-3.08V194.2h1.88q.6 0 .79.57l.2.95q.34-.38.71-.69.37-.31.78-.54.42-.22.9-.35.49-.14 1.06-.14 1.21 0 1.99.66.79.66 1.17 1.74.3-.63.75-1.09.45-.46.99-.74.54-.29 1.14-.43.61-.14 1.22-.14 1.07 0 1.89.33.83.32 1.39.95.56.62.85 1.52.3.9.3 2.07v8.16h-3.09v-8.16q0-1.23-.54-1.85-.53-.62-1.57-.62-.48 0-.88.17-.41.16-.72.47-.3.3-.48.77-.17.46-.17 1.06v8.16h-3.1v-8.16q0-1.29-.52-1.88-.52-.59-1.52-.59-.67 0-1.26.34-.58.33-1.08.9v9.39Zm24.63-3.31v-2.17q-1.34.07-2.25.24-.91.16-1.46.43-.55.26-.79.61t-.24.76q0 .81.48 1.17.48.34 1.26.34.95 0 1.64-.34.7-.34 1.36-1.04Zm-6.53-6.74-.55-.99q2.22-2.02 5.33-2.02 1.12 0 2.01.37.89.36 1.5 1.02t.93 1.57q.32.91.32 2v8.1h-1.4q-.44 0-.67-.13-.24-.13-.38-.53l-.27-.93q-.49.44-.95.77-.47.33-.97.56-.5.22-1.07.34-.56.12-1.25.12-.81 0-1.5-.22t-1.19-.66q-.5-.43-.77-1.08-.28-.65-.28-1.52 0-.48.16-.96.17-.49.53-.92.37-.44.96-.83.59-.39 1.44-.67.86-.29 2-.47 1.14-.18 2.6-.22v-.75q0-1.29-.55-1.91-.55-.62-1.59-.62-.75 0-1.24.18-.5.17-.87.39-.38.22-.68.4-.31.17-.68.17-.33 0-.55-.17-.23-.17-.37-.39Zm17.13 3.32q.57 0 1-.15.42-.16.7-.43.29-.28.43-.67.14-.38.14-.85 0-.95-.57-1.5-.56-.56-1.7-.56t-1.71.56q-.57.55-.57 1.5 0 .45.15.84.14.39.42.67.28.28.71.44.44.15 1 .15Zm3.49 7.31q0-.38-.23-.62-.22-.24-.61-.37t-.91-.19q-.52-.06-1.1-.09-.58-.04-1.2-.06-.62-.03-1.2-.1-.52.29-.84.67-.31.39-.31.91 0 .33.16.63.17.29.54.5.37.22.96.33.59.12 1.44.12.86 0 1.48-.13.63-.13 1.03-.36.41-.23.6-.55.19-.32.19-.69Zm-.62-12.97h3.69v1.15q0 .55-.66.68l-1.15.21q.26.66.26 1.45 0 .95-.38 1.72t-1.06 1.3q-.67.54-1.59.84-.92.29-1.98.29-.38 0-.73-.04t-.68-.1q-.6.36-.6.81 0 .39.35.57.36.18.95.26.58.07 1.33.09.75.02 1.54.08.79.07 1.54.22.75.16 1.34.5.58.34.94.92.36.58.36 1.49 0 .85-.42 1.65-.42.8-1.22 1.43-.79.62-1.95 1-1.15.38-2.63.38-1.45 0-2.52-.28-1.08-.28-1.79-.75t-1.06-1.08q-.35-.61-.35-1.27 0-.9.54-1.51.55-.61 1.5-.97-.52-.26-.82-.7-.3-.44-.3-1.15 0-.29.11-.59.11-.31.31-.61.21-.3.52-.57.31-.27.74-.48-.98-.53-1.53-1.4-.56-.88-.56-2.05 0-.95.38-1.72t1.06-1.31q.69-.55 1.62-.83.93-.29 2.03-.29.82 0 1.55.17.72.17 1.32.49Zm8.08 4.5h5.82q0-.6-.17-1.13-.16-.53-.5-.93-.34-.4-.86-.63-.52-.23-1.2-.23-1.34 0-2.11.76-.77.76-.98 2.16Zm7.87 1.86h-7.93q.07.99.35 1.71.27.72.72 1.19.45.47 1.07.7.62.23 1.37.23.75 0 1.29-.18.55-.17.95-.38.41-.22.71-.39.31-.18.6-.18.39 0 .57.29l.89 1.13q-.51.6-1.15 1-.64.41-1.33.65-.69.25-1.41.35-.72.1-1.4.1-1.33 0-2.48-.45-1.15-.44-2-1.31-.85-.87-1.34-2.15-.49-1.28-.49-2.97 0-1.31.43-2.47.42-1.15 1.21-2.01.8-.86 1.94-1.36 1.15-.5 2.58-.5 1.22 0 2.24.39 1.03.39 1.76 1.13.74.75 1.16 1.83.42 1.08.42 2.47 0 .7-.15.94t-.58.24Z"/></svg>